# xmcd CD database file
#
# Track frame offsets:
#	150
#	35706
#	58177
#	80334
#	92412
#	127396
#	153015
#
# Disc length: 2555 seconds
#
# Revision: 0
# Processed by: cddbd v1.5.2PL0 Copyright (c) Steve Scherf et al.
# Submitted via: CDex 1.51
#
DISCID=5509f907
DTITLE=Surnatural Orchestra - Sans Tête - In
DYEAR=2009
DGENRE=Jazz
TTITLE0=Six Apparitions de Berlusconi sur un Ecran
TTITLE1=Paris sous les Trompes
TTITLE2=Jenesaipa
TTITLE3=Petites musiques Intérieures
TTITLE4=Du Rafting dans les Ruelles
TTITLE5=Sur son Chat Ultra Rare
TTITLE6=Gamelan
EXTD=YEAR: 2009
EXTT0=
EXTT1=
EXTT2=
EXTT3=
EXTT4=
EXTT5=
EXTT6=
PLAYORDER=
